<svg xmlns="http://www.w3.org/2000/svg" viewBox="0 0 1234.62 254.97">
  <defs>
    <style>
      .cls-1, .cls-12, .cls-7, .cls-9 {
        fill: #fff;
      }

      .cls-1, .cls-11, .cls-12, .cls-14, .cls-18, .cls-2, .cls-20, .cls-22, .cls-3, .cls-33, .cls-36, .cls-38, .cls-7, .cls-8 {
        stroke: #000;
      }

      .cls-1, .cls-11, .cls-20, .cls-28, .cls-29, .cls-30, .cls-31, .cls-8 {
        stroke-linecap: round;
      }

      .cls-1, .cls-2, .cls-28, .cls-32 {
        stroke-linejoin: round;
      }

      .cls-1, .cls-3, .cls-4 {
        stroke-width: 2.38px;
      }

      .cls-11, .cls-14, .cls-15, .cls-17, .cls-18, .cls-19, .cls-2, .cls-20, .cls-21, .cls-24, .cls-28, .cls-31, .cls-32, .cls-33, .cls-38, .cls-8 {
        fill: none;
      }

      .cls-2 {
        stroke-width: 2.29px;
      }

      .cls-11, .cls-12, .cls-14, .cls-15, .cls-17, .cls-18, .cls-19, .cls-20, .cls-21, .cls-22, .cls-29, .cls-3, .cls-30, .cls-31, .cls-33, .cls-36, .cls-38, .cls-4, .cls-5, .cls-7, .cls-8 {
        stroke-miterlimit: 10;
      }

      .cls-4, .cls-5 {
        stroke: #fbcf09;
      }

      .cls-5 {
        stroke-width: 1.53px;
      }

      .cls-6 {
        fill: #fbcf09;
      }

      .cls-7, .cls-8 {
        stroke-width: 1.61px;
      }

      .cls-10 {
        fill: #bb762a;
      }

      .cls-11 {
        stroke-width: 2.32px;
      }

      .cls-12, .cls-14 {
        stroke-width: 1.94px;
      }

      .cls-13 {
        fill: #ef67a4;
      }

      .cls-15 {
        stroke: #6dcef5;
        stroke-width: 1.87px;
      }

      .cls-16 {
        fill: #ba772b;
      }

      .cls-17 {
        stroke: #f7cbdf;
      }

      .cls-17, .cls-18, .cls-19, .cls-21, .cls-30 {
        stroke-width: 1.87px;
      }

      .cls-19 {
        stroke: #00bcf1;
      }

      .cls-20, .cls-22, .cls-33 {
        stroke-width: 1.81px;
      }

      .cls-21, .cls-31 {
        stroke: #fff;
      }

      .cls-22, .cls-34 {
        fill: #face0b;
      }

      .cls-23 {
        fill: #ee67a2;
      }

      .cls-25 {
        fill: #6dcdf4;
      }

      .cls-26 {
        fill: #f7cbdf;
      }

      .cls-27 {
        fill: #e82429;
      }

      .cls-28, .cls-32 {
        stroke: #ee67a2;
        stroke-width: 3.74px;
      }

      .cls-29 {
        fill: #005373;
        stroke: #0484b1;
      }

      .cls-29, .cls-31 {
        stroke-width: 2.49px;
      }

      .cls-30 {
        fill: #211e1f;
        stroke: #e82429;
      }

      .cls-31 {
        stroke-dasharray: 0.62 3.74;
      }

      .cls-35 {
        fill: #f9f5bc;
      }

      .cls-36 {
        stroke-width: 0.62px;
      }

      .cls-37 {
        fill: #f26f21;
      }

      .cls-38 {
        stroke-width: 0.87px;
      }

      .cls-39 {
        font-size: 25.59px;
        fill: #da2128;
        font-family: Neusa-DemiBold, Neusa;
        font-weight: 700;
        letter-spacing: 0.13em;
      }

      .cls-40 {
        letter-spacing: 0.12em;
      }

      .cls-41 {
        letter-spacing: 0.11em;
      }

      .cls-42 {
        letter-spacing: 0.1em;
      }

      .cls-43 {
        letter-spacing: 0.05em;
      }

      .cls-44 {
        letter-spacing: 0.13em;
      }

      .cls-45 {
        letter-spacing: 0.12em;
      }

      .cls-46 {
        letter-spacing: 0.11em;
      }

      .cls-47 {
        letter-spacing: 0.11em;
      }

      .cls-48 {
        letter-spacing: 0.09em;
      }

      .cls-49 {
        letter-spacing: 0.13em;
      }

      .cls-50 {
        letter-spacing: 0.11em;
      }

      .cls-51 {
        letter-spacing: 0.09em;
      }

      .cls-52 {
        letter-spacing: 0.13em;
      }
    </style>
  </defs>
  <title>Artboard 8</title>
  <g id="Layer_1" data-name="Layer 1">
    <g>
      <g>
        <path class="cls-1" d="M1109.23,90l11.27-13s6.74-7.39,13.06-7.39h12.52s-16.56,8.59-18.42,11.86-5.48,8.43-5.48,8.43"/>
        <line class="cls-2" x1="1109.89" y1="89.22" x2="1134.59" y2="76.2"/>
        <polyline class="cls-3" points="1167.05 169.58 1190.4 188.94 1188.66 220.79 1194.69 220.79 1202.46 179.14 1191.44 169.58"/>
        <polyline class="cls-3" points="1125.06 170.95 1118.09 220.79 1123.84 220.79 1133.57 180.06"/>
        <polyline class="cls-4" points="1088.29 118.57 1088.29 130.72 1093.47 130.72 1099.66 118.57"/>
        <path class="cls-5" d="M1103.84,118.57h-15.55c-.79,0-3.4-.81-4.41-4.33-1.12-3.91,2.26-8.24,3.43-9.09S1098.4,94.6,1098.4,94.6s3.14-4.37,10.83-4.62,26.53,0,26.53,0-7.7,10.46-13.81,10.46l13.39,25h60.46s16.38,1.08,22.13,8.4l15.68-8s2.27,7.8-7,18.36l-4.7,18.58,6.34,7.14L1221.75,223h-7.83l-.17-34.09-22.3-19.36h-39.33v53.19H1143l-3.31-37s-29.27-24.92-32.23-47.39Z"/>
        <circle class="cls-6" cx="1102.18" cy="101.77" r="3.37"/>
      </g>
      <g>
        <path class="cls-7" d="M72.68,169.64s1-6,4.16-3.89,3,8.71,3,8.71"/>
        <path class="cls-7" d="M75.8,180.87a25.7,25.7,0,0,1,1.06,18.83A18.32,18.32,0,0,1,64.4,212s-9.5,2.16-17.16-4S38,197.12,38,193.62a7.5,7.5,0,0,1,2.6-5.55,11.06,11.06,0,0,0,11,2.45c6.94-2,12.33-5.06,13.44-9.8s1-10.56,4.93-11.26S82.72,177,82.72,177Z"/>
        <circle cx="71.77" cy="175.73" r="1.67"/>
        <path class="cls-8" d="M68.49,194.7a4.49,4.49,0,0,1-3.65,2.58A6.18,6.18,0,0,1,59,192.72"/>
        <path class="cls-8" d="M65.35,197.87A5.08,5.08,0,0,1,61,200.36a7.77,7.77,0,0,1-7.18-4.71"/>
        <path class="cls-8" d="M46.81,194.84s1.85,6.26,5.76,7,4.92-1.46,4.92-1.46"/>
        <polyline class="cls-8" points="72.07 222.04 66.84 218.44 67.74 210.62"/>
        <polyline class="cls-8" points="70.22 216.36 66.84 218.44 64.25 221.13"/>
        <polyline class="cls-8" points="58.94 222.21 53.7 218.61 54.49 211.81"/>
        <polyline class="cls-8" points="57.09 216.53 53.7 218.61 51.11 221.3"/>
      </g>
      <g>
        <path class="cls-7" d="M35.48,169.64s1-6,4.16-3.89,3,8.71,3,8.71"/>
        <path class="cls-7" d="M38.6,180.87a25.67,25.67,0,0,1,1.07,18.83A18.34,18.34,0,0,1,27.2,212s-9.5,2.16-17.15-4S.82,197.12.81,193.62a7.46,7.46,0,0,1,2.6-5.55,11,11,0,0,0,11,2.45c6.94-2,12.32-5.06,13.43-9.8s1-10.56,4.94-11.26S45.52,177,45.52,177Z"/>
        <circle cx="34.58" cy="175.73" r="1.67"/>
        <path class="cls-8" d="M31.3,194.7a4.51,4.51,0,0,1-3.66,2.58,6.18,6.18,0,0,1-5.85-4.56"/>
        <path class="cls-8" d="M28.15,197.87a5.06,5.06,0,0,1-4.35,2.49,7.78,7.78,0,0,1-7.18-4.71"/>
        <path class="cls-8" d="M9.61,194.84s1.85,6.26,5.77,7,4.92-1.46,4.92-1.46"/>
        <polyline class="cls-8" points="34.88 222.04 29.64 218.44 30.55 210.62"/>
        <polyline class="cls-8" points="33.03 216.36 29.64 218.44 27.05 221.13"/>
        <polyline class="cls-8" points="21.74 222.21 16.5 218.61 17.29 211.81"/>
        <polyline class="cls-8" points="19.89 216.53 16.5 218.61 13.91 221.3"/>
      </g>
      <g>
        <path class="cls-7" d="M137.17,169.64s1-6,4.15-3.89,3,8.71,3,8.71"/>
        <path class="cls-7" d="M140.29,180.87a25.7,25.7,0,0,1,1.06,18.83A18.34,18.34,0,0,1,128.88,212s-9.5,2.16-17.15-4-9.23-10.91-9.24-14.41a7.46,7.46,0,0,1,2.6-5.55,11.06,11.06,0,0,0,11,2.45c6.94-2,12.33-5.06,13.43-9.8s1-10.56,4.94-11.26S147.21,177,147.21,177Z"/>
        <circle cx="136.26" cy="175.73" r="1.67"/>
        <path class="cls-8" d="M133,194.7a4.51,4.51,0,0,1-3.65,2.58,6.17,6.17,0,0,1-5.85-4.56"/>
        <path class="cls-8" d="M129.83,197.87a5.06,5.06,0,0,1-4.35,2.49,7.78,7.78,0,0,1-7.18-4.71"/>
        <path class="cls-8" d="M111.3,194.84s1.85,6.26,5.76,7,4.92-1.46,4.92-1.46"/>
        <polyline class="cls-8" points="136.56 222.04 131.32 218.44 132.23 210.62"/>
        <polyline class="cls-8" points="134.71 216.36 131.32 218.44 128.74 221.13"/>
        <polyline class="cls-8" points="123.42 222.21 118.19 218.61 118.97 211.81"/>
        <polyline class="cls-8" points="121.57 216.53 118.19 218.61 115.6 221.3"/>
      </g>
      <g>
        <path class="cls-7" d="M119.39,169.64s1-6,4.16-3.89,3,8.71,3,8.71"/>
        <path class="cls-7" d="M122.51,180.87a25.7,25.7,0,0,1,1.06,18.83A18.34,18.34,0,0,1,111.1,212s-9.5,2.16-17.15-4-9.22-10.91-9.24-14.41a7.5,7.5,0,0,1,2.6-5.55,11.06,11.06,0,0,0,11,2.45c6.94-2,12.33-5.06,13.43-9.8s1-10.56,4.94-11.26S129.43,177,129.43,177Z"/>
        <circle cx="118.48" cy="175.73" r="1.67"/>
        <path class="cls-8" d="M115.2,194.7a4.51,4.51,0,0,1-3.65,2.58,6.17,6.17,0,0,1-5.85-4.56"/>
        <path class="cls-8" d="M112.05,197.87a5.06,5.06,0,0,1-4.35,2.49,7.75,7.75,0,0,1-7.17-4.71"/>
        <path class="cls-8" d="M93.52,194.84s1.85,6.26,5.76,7,4.92-1.46,4.92-1.46"/>
        <polyline class="cls-8" points="118.78 222.04 113.55 218.44 114.45 210.62"/>
        <polyline class="cls-8" points="116.93 216.36 113.55 218.44 110.96 221.13"/>
        <polyline class="cls-8" points="105.64 222.21 100.41 218.61 101.19 211.81"/>
        <polyline class="cls-8" points="103.79 216.53 100.41 218.61 97.82 221.3"/>
      </g>
      <g>
        <path class="cls-9" d="M513.69,251.15h-3.54v-6.77l-6.67-9.85h4.07l3,4.29c.23.38,1.34,2.43,1.34,2.43h.07s1.17-2.05,1.42-2.43l2.95-4.29h4.1l-6.72,9.85Z"/>
        <path class="cls-9" d="M539.43,234.53v10c0,4.7-3.48,6.9-7.7,6.9s-7.74-2.2-7.74-6.9v-10h3.54v9.9c0,2.4,1.37,3.89,4.2,3.89s4.17-1.49,4.17-3.89v-9.9Z"/>
        <path class="cls-9" d="M557.07,234.53h3.54v16.62H557.3L548.2,240h-.05s.23,2.56.23,3.82v7.3h-3.54V234.53h3.36l9,11.06h0s-.23-2.57-.23-3.53Z"/>
        <path class="cls-9" d="M578.34,234.53h3.54v16.62h-3.31L569.47,240h-.05s.23,2.56.23,3.82v7.3h-3.54V234.53h3.36l9,11.06h.05s-.23-2.57-.23-3.53Z"/>
        <path class="cls-9" d="M596.38,234.53l7.13,16.62h-3.87L598,247.29H591.1l-1.64,3.86h-3.87l7.13-16.62ZM592,244.68h5l-1-2.4c-.46-1-1.39-4-1.39-4h-.13s-1,3-1.42,4Z"/>
        <path class="cls-9" d="M619.45,234.53H623v16.62h-3.31L610.58,240h-.05s.23,2.56.23,3.82v7.3h-3.54V234.53h3.36l9,11.06h0s-.23-2.57-.23-3.53Z"/>
        <path class="cls-9" d="M630.17,247.77a2,2,0,0,1,2,2.14A5.88,5.88,0,0,1,628.8,255l-.93-1.11a7,7,0,0,0,1.94-2.58v-.08l-1.19-.3a2.24,2.24,0,0,1-.4-1.29A1.81,1.81,0,0,1,630.17,247.77Z"/>
        <path class="cls-9" d="M643.45,243a8.68,8.68,0,0,1,9.1-8.77,9.28,9.28,0,0,1,6.39,2.18l-1.39,2.8a7.21,7.21,0,0,0-4.85-1.84,5.32,5.32,0,0,0-5.53,5.61c0,3.05,2.07,5.35,5.68,5.35a7.69,7.69,0,0,0,5.26-2.25l1.39,2.58a9.28,9.28,0,0,1-6.9,2.81C646.36,251.46,643.45,247.54,643.45,243Z"/>
        <path class="cls-9" d="M667.16,234.53V241h7.75v-6.49h3.54v16.62h-3.54v-7h-7.75v7h-3.54V234.53Z"/>
        <path class="cls-9" d="M687.52,234.53v16.62H684V234.53Z"/>
        <path class="cls-9" d="M705.26,234.53h3.53v16.62h-3.31L696.39,240h0s.23,2.56.23,3.82v7.3H693V234.53h3.36l9,11.06h.05s-.22-2.57-.22-3.53Z"/>
        <path class="cls-9" d="M723.3,234.53l7.12,16.62h-3.86l-1.67-3.86H718l-1.65,3.86h-3.86l7.12-16.62ZM719,244.68h5l-1-2.4c-.46-1-1.39-4-1.39-4h-.13s-1,3-1.41,4Z"/>
      </g>
      <g>
        <path class="cls-9" d="M400.27,67.49c-.82,12-1.48,23.92-2.61,35.91-1.59,18.29-3.51,36.45-5.27,54.59q-1,9-1.93,18a16.62,16.62,0,0,1-.81,3.82c-1.32,5.27-4.25,8-9.21,8.68-5.26.87-8.5-.61-11.23-5.57-7.28-13.39-15.15-26.42-20.77-40.72-1.74-4.26-3.61-8.35-5.33-12.44a7.25,7.25,0,0,0-1-1.34c-.28.5-.72.84-.84,1.32-1.19,4.95-2.07,9.87-3.42,14.83q-4.56,17.49-9.57,35a37.91,37.91,0,0,1-4.16,9.24c-4.61,7.4-11.63,7.77-16.7.8a72.92,72.92,0,0,1-7.57-13.06c-6.38-14.08-10.19-29.15-13.21-44.27s-5.59-30.43-8.3-45.58l-.1-1.4c-1.32-9.14.29-12.71,8.6-16.78a34.66,34.66,0,0,1,10.44-2.67,6.37,6.37,0,0,1,6.91,4.33,92.76,92.76,0,0,1,4.07,12.38c3.15,14.8,6.15,29.61,9.15,44.42,2,10.19,3.89,20.38,5.76,30.58a4.87,4.87,0,0,0,.57,1.37c.28-.49.72-.84.84-1.32,1.37-4.65,2.74-9.29,3.95-14.08Q332.24,128,336,112.45c.95-4,2.59-7.09,7.54-7.93,5.41-1,7.61-.89,10.19,4.24,3.5,6.94,6.86,14,9.76,21.34,4.05,10,7.48,20.27,11.23,30.48.2.61.86,1,1.36,1.47a4.73,4.73,0,0,0,.64-1.93c.5-14.14.52-28.39,1.48-42.56,1.1-14.49.32-29,0-43.54a41.1,41.1,0,0,1,.53-7.56,12.36,12.36,0,0,1,15.07-9.91c4.94,1.19,6.67,3.25,6.9,8.4l.21,2.81.47,0Z"/>
        <path class="cls-9" d="M419.08,185.06c.94-6.25,2-13.74,3.44-21.24,2.81-15.46,5.62-30.93,8.9-46.39A160.3,160.3,0,0,1,438,94.94a73.41,73.41,0,0,1,6.56-13.12c2.5-4.06,6.4-6.25,10.93-7.65,7.5-2.19,12.81-1.56,18.27,6.56a91.49,91.49,0,0,1,10.47,20.15c10.31,29.2,20.15,58.57,30.14,87.93a45.42,45.42,0,0,1,2,6.72c.78,4.06-.15,6.09-3.9,8.12-7.81,4.21-17.49,4.37-23.58-5.94a73.77,73.77,0,0,1-5-11.4c-.94-2.5-2-3.44-4.84-3.12-8.28.78-16.56,1.56-24.84,2-3,.15-4.06,1.4-4.37,4.21a64.51,64.51,0,0,1-1.56,7.5,9.62,9.62,0,0,1-7.34,7.19l-5.16,1.4c-8.12,2-14.37-2.34-15.46-10.78-.31-2.81-.62-5.78-1.09-10Zm33.74-21.55h.46c0,.78-.15,1.56-.15,2.34-.31,3.44-.16,3.59,3,3.12,5.93-.93,11.87-2,17.8-3,2-.32,2.66-.79,1.88-3.13-4.85-13.43-9.37-27-14.06-40.45a10.91,10.91,0,0,0-.94-1.87,14.24,14.24,0,0,0-.93,2.34l-6.57,40.76Z"/>
        <path class="cls-9" d="M540.13,177.51c-5.21-1-8.23-3.79-9-9.47A153.93,153.93,0,0,1,530,149a421.71,421.71,0,0,1,4.77-62.88c1.27-8.34,2.39-16.71,3.66-25,.37-2.16,1.05-4.26,1.57-6.39,1-4.1,4-6,7.81-6.74,8.69-1.68,13.93,2.86,13.6,12.16-.31,7.39-.66,14.94-1.62,22.38-2.64,20.94-5.59,41.83-8.23,62.77-1,7.9-1.62,15.88-2.35,23.84l-.24,1.38c-.77,5.42-3.68,7.61-9,6.53Z"/>
        <path class="cls-9" d="M587.77,125.82c0-10.94,0-21.87.15-32.8A32.44,32.44,0,0,1,589,84.43c1.72-5.78,5.16-9.68,11.56-11.09A84.66,84.66,0,0,1,622.28,71c14.68.47,26.4,6.4,34.36,18.89A65.72,65.72,0,0,1,667,125.51c0,13.9-6.4,25.14-16.09,34.67-7,6.87-15,12.65-24.67,15.46-2.19.63-2.66,1.88-2.81,3.91-.16,4.68-.32,9.37-.94,14-.78,5.16-3.91,8.44-9.06,9.69-.63.15-1.25.46-2,.62-9.68,1.87-14.06-.62-16.24-10.31A154.34,154.34,0,0,1,591.67,171c-1.25-15.15-2-30.46-3-45.77h-.47Zm51.69-1.72c-.31-8.75-3-18-10-25.61A19.25,19.25,0,0,0,621,92.86c-1.4-.47-2-.15-2,1.25v3.28c.78,16.4,1.56,32.8,2.5,49.2.16,2,.63,4.06.78,6.09s1.1,1.88,2.5.94c9.84-6.72,15-15.93,15-29.36Z"/>
        <path class="cls-9" d="M713.8,108.31c-.46,14.68,0,30.45,3,46.07,1.25,6.72,3.44,13.28,5.47,19.84.78,2.5,1.87,5.62,5,5.93s4.37-2.81,5.78-5A62.08,62.08,0,0,0,741.76,148c1.09-10.31,1.56-20.62,2.19-30.93.78-12.49,1.4-25,2.34-37.48A11.67,11.67,0,0,1,753.63,69c7-3.12,12.5-.31,13.28,7.34a123.64,123.64,0,0,1,.93,20.15,293.93,293.93,0,0,1-5.62,46.85c-1.56,8.12-3,16.4-5,24.52a77.35,77.35,0,0,1-5.46,14.06,34.45,34.45,0,0,1-10,12.18c-12.49,9.53-28.58,8.44-39.51-2.81a51.12,51.12,0,0,1-10.31-16.4,119.71,119.71,0,0,1-8.12-32.17c-1.25-11.87-2.35-23.9-2.5-35.92-.16-8.91,1.4-17.81,2.34-26.71.47-5.31,3.59-8.44,8.75-9.69a13.18,13.18,0,0,0,2.65-.46c9.84-3.28,18.28,3.9,18.9,13.58.31,4.69.16,9.38.16,14.06V108Z"/>
        <path class="cls-9" d="M798.12,78.62c.45-3.4.55-6.54,1.27-9.6,1.12-4.89,4.89-7.23,9.25-8.07a7.59,7.59,0,0,1,1.9-.06,5.5,5.5,0,0,0,1.57,0c7.62-.42,12.16,3.33,12,10.87-.29,14.14-.89,28.24-1.18,42.38-.52,19.46-1,38.93-1.41,58.42-.09,1.87-.21,2.8.37,3.2.13.17.29.19.75.25a11.25,11.25,0,0,0,2.33.31c6.38.53,12.79.9,19.14,1.74,8.21,1.08,11,8.23,6.24,14.84a7.24,7.24,0,0,1-6.88,3.19c-11.25-.7-22.53-1.24-33.73-2.25-7.63-.69-13.12-5.66-14.46-13.4a63,63,0,0,1-.69-12.7c.9-24.77,2-49.83,2.93-74.76.13-4.55.26-9.1.33-14.45Z"/>
        <path class="cls-9" d="M863.37,143.41c2.27-5.89,5-13,8-20,6.09-14.49,12.18-29,18.73-43.37a161.89,161.89,0,0,1,11.27-20.54,73.17,73.17,0,0,1,9.24-11.38c3.32-3.43,7.6-4.72,12.33-5.11,7.79-.52,12.84,1.24,16.42,10.35a91.53,91.53,0,0,1,5.86,21.94c3.75,30.74,7,61.54,10.41,92.37a47.56,47.56,0,0,1,.53,7c-.12,4.13-1.47,5.91-5.57,7.08-8.54,2.43-18,.49-21.74-10.89a74,74,0,0,1-2.42-12.22c-.37-2.64-1.24-3.79-4-4.09-8.25-1-16.5-2.06-24.68-3.39-2.93-.49-4.27.49-5.18,3.17a65.62,65.62,0,0,1-3.15,7,9.61,9.61,0,0,1-8.72,5.43l-5.34.25c-8.37.23-13.52-5.39-12.76-13.86.3-2.81.64-5.78,1.09-10ZM901,129.67l.46.1c-.17.76-.49,1.49-.66,2.25-1,3.29-.93,3.47,2.22,3.69,6,.37,12,.59,18,1,2.05.13,2.76-.19,2.5-2.65-1.82-14.16-3.3-28.4-5-42.53a10.41,10.41,0,0,0-.51-2,13.69,13.69,0,0,0-1.42,2.08q-7.62,19.18-15.23,38.38Z"/>
      </g>
      <rect x="233.02" y="52.35" width="20.69" height="7.13"/>
      <circle cx="231.51" cy="76.27" r="3.78"/>
      <circle cx="249.92" cy="72.08" r="3.78"/>
      <circle cx="241.28" cy="72.08" r="3.78"/>
      <path class="cls-10" d="M168.93,95.51v6.78h31V95.51A15.42,15.42,0,0,0,196.63,86h-24.4A15.42,15.42,0,0,0,168.93,95.51Z"/>
      <path d="M184.43,80a15.46,15.46,0,0,0-12.2,6h24.4A15.47,15.47,0,0,0,184.43,80Z"/>
      <path class="cls-10" d="M219.3,82.91A9.68,9.68,0,0,1,229,92.6v9.69H209.61V92.6A9.69,9.69,0,0,1,219.3,82.91Z"/>
      <path class="cls-10" d="M149.56,141a9.69,9.69,0,0,1-9.69-9.69v-9.68h19.37v9.68A9.68,9.68,0,0,1,149.56,141Z"/>
      <path d="M251.74,115.85a12.1,12.1,0,0,0-12.1,12.1v12.11H199.92v-18.4H219.3A9.68,9.68,0,0,0,229,112v-9.68H149.56a9.68,9.68,0,0,0-9.69,9.68v9.69H169V141h0v72.64A12.11,12.11,0,0,0,181,225.78h24.21a12.11,12.11,0,1,0,0-24.22H193.14V164.27h58.6a12.11,12.11,0,0,0,12.11-12.1V128A12.11,12.11,0,0,0,251.74,115.85Z"/>
      <g>
        <path d="M185.68,91.54a1.9,1.9,0,1,0,1.9-1.9A1.9,1.9,0,0,0,185.68,91.54Z"/>
        <path d="M176.21,91.54a1.9,1.9,0,1,0,1.9-1.9A1.9,1.9,0,0,0,176.21,91.54Z"/>
      </g>
      <path class="cls-11" d="M177.61,96.44a15.17,15.17,0,0,0,10.47,0"/>
      <polygon class="cls-12" points="215.22 137.65 198.39 120.82 174.59 120.82 157.76 137.65 157.76 161.45 174.59 178.28 198.39 178.28 215.22 161.45 215.22 137.65"/>
      <rect class="cls-12" x="221.12" y="94.03" width="6.14" height="14.26" transform="translate(454.24 14.16) rotate(135)"/>
      <rect class="cls-12" x="213" y="102.14" width="6.14" height="14.26" transform="translate(446.13 33.76) rotate(135)"/>
      <rect class="cls-12" x="231.81" y="104.71" width="6.14" height="14.26" transform="translate(480.05 24.85) rotate(135)"/>
      <rect class="cls-12" x="223.69" y="112.83" width="6.14" height="14.26" transform="translate(471.93 44.44) rotate(135)"/>
      <line class="cls-12" x1="202.46" y1="129.99" x2="206.8" y2="134.33"/>
      <line class="cls-12" x1="205.96" y1="126.48" x2="210.3" y2="130.82"/>
      <line class="cls-12" x1="210.36" y1="122.08" x2="214.7" y2="126.42"/>
      <line class="cls-12" x1="215.64" y1="116.81" x2="219.98" y2="121.15"/>
      <polygon class="cls-13" points="174.59 121.66 165.92 130.33 186.85 121.66 174.59 121.66"/>
      <polygon class="cls-13" points="158.24 138.19 158.24 150.45 166.91 129.52 158.24 138.19"/>
      <polygon class="cls-13" points="158.66 161.24 167.33 169.91 158.66 148.98 158.66 161.24"/>
      <polygon class="cls-13" points="174.59 177.27 186.85 177.27 165.92 168.6 174.59 177.27"/>
      <polygon class="cls-13" points="197.8 177.39 206.47 168.72 185.54 177.39 197.8 177.39"/>
      <polygon class="cls-13" points="214.47 161.24 214.47 148.98 205.8 169.91 214.47 161.24"/>
      <polygon class="cls-13" points="214.45 138.24 205.78 129.57 214.45 150.51 214.45 138.24"/>
      <polygon class="cls-13" points="198.2 121.66 185.93 121.66 206.87 130.33 198.2 121.66"/>
      <polygon class="cls-14" points="215.22 137.65 198.39 120.82 174.59 120.82 157.76 137.65 157.76 161.45 174.59 178.28 198.39 178.28 215.22 161.45 215.22 137.65"/>
      <circle class="cls-12" cx="186.86" cy="149.92" r="21.16"/>
      <circle class="cls-15" cx="186.86" cy="149.92" r="17.77"/>
      <rect class="cls-12" x="200.95" y="87.35" width="6.14" height="90.83" transform="translate(153.64 -105.38) rotate(45)"/>
      <circle class="cls-12" cx="186.86" cy="149.92" r="9.04"/>
      <circle class="cls-12" cx="186.86" cy="149.92" r="4.1"/>
      <line class="cls-12" x1="193.71" y1="138.74" x2="198.05" y2="143.08"/>
      <line class="cls-12" x1="196.33" y1="136.11" x2="200.67" y2="140.45"/>
      <line class="cls-12" x1="198.96" y1="133.49" x2="203.3" y2="137.83"/>
      <rect x="233.06" y="56.44" width="2.23" height="19.28"/>
      <rect x="242.83" y="56.44" width="2.23" height="15.65"/>
      <rect x="251.47" y="56.44" width="2.23" height="15.65"/>
      <rect class="cls-12" x="161.25" y="169.39" width="6.14" height="6.14" transform="translate(170.08 -65.68) rotate(45)"/>
      <g>
        <path d="M1000.13,160.45h26.11V144.81l-24.69-24.69,13.73-13.73,11,11V117h31v46.58h-8.28v21.14h-36.68v12.11H988V172.56A12.11,12.11,0,0,1,1000.13,160.45Z"/>
        <path class="cls-16" d="M992.54,97.44a9.7,9.7,0,0,0,0,13.72l10.39,10.39,13.73-13.72-10.39-10.39A9.71,9.71,0,0,0,992.54,97.44Z"/>
        <line class="cls-17" x1="1007.82" y1="126.44" x2="1021.54" y2="112.71"/>
        <line class="cls-18" x1="1008.9" y1="127.53" x2="1022.63" y2="113.8"/>
        <line class="cls-19" x1="1010.2" y1="128.82" x2="1023.92" y2="115.09"/>
        <line x1="1011.32" y1="129.94" x2="1025.04" y2="116.21"/>
        <line class="cls-17" x1="1012.57" y1="131.19" x2="1026.29" y2="117.46"/>
        <line class="cls-19" x1="1013.89" y1="132.51" x2="1027.61" y2="118.78"/>
        <line class="cls-17" x1="1015.21" y1="133.83" x2="1028.93" y2="120.1"/>
        <rect x="1026.06" y="116.95" width="6.84" height="27.49"/>
        <line class="cls-20" x1="1060.17" y1="78.27" x2="1064.03" y2="75.14"/>
        <path d="M1032.72,133.11A12.11,12.11,0,0,1,1044.83,121h12.11v36.33h-24.22Z"/>
        <g>
          <path d="M1008.5,172.83a12.11,12.11,0,0,0,12.11,12.11h12.11V160.72h-12.11A12.11,12.11,0,0,0,1008.5,172.83Z"/>
          <path d="M1056.94,172.83a12.11,12.11,0,0,1-12.11,12.11h-12.11V148.61h24.22Z"/>
        </g>
        <line class="cls-21" x1="1053.62" y1="157.11" x2="1053.62" y2="145.4"/>
        <line class="cls-21" x1="1047.75" y1="157.11" x2="1047.75" y2="145.4"/>
        <line class="cls-21" x1="1041.88" y1="157.11" x2="1041.88" y2="145.4"/>
        <line class="cls-21" x1="1036.02" y1="157.11" x2="1036.02" y2="145.4"/>
        <line class="cls-21" x1="1032.67" y1="146.11" x2="1057.17" y2="146.11"/>
        <line class="cls-19" x1="1032.58" y1="158.12" x2="1057.08" y2="158.12"/>
        <line class="cls-17" x1="1032.58" y1="156.32" x2="1057.08" y2="156.32"/>
        <line class="cls-17" x1="1032.58" y1="159.87" x2="1057.08" y2="159.87"/>
        <rect class="cls-22" x="1031.93" y="199.14" width="37.51" height="10.37" transform="translate(1255.01 -846.37) rotate(90)"/>
        <rect class="cls-22" x="999.52" y="199.14" width="37.51" height="10.37" transform="translate(1222.59 -813.96) rotate(90)"/>
        <rect class="cls-22" x="1013.09" y="185.56" width="42.78" height="10.37" transform="translate(2068.96 381.49) rotate(-180)"/>
        <g>
          <path d="M963.8,212.28a12.11,12.11,0,0,0,12.11,12.11H988V200.17H975.91A12.11,12.11,0,0,0,963.8,212.28Z"/>
          <path d="M1012.24,212.28a12.11,12.11,0,0,1-12.11,12.11H988V188.06h24.22Z"/>
        </g>
        <path class="cls-21" d="M987.43,177.33a8.38,8.38,0,0,1,2.19-.28,8.71,8.71,0,0,1,6.71,3.14,8.74,8.74,0,0,1,13.42,0,8.74,8.74,0,0,1,6.71-3.14"/>
        <circle class="cls-20" cx="1025.38" cy="112.41" r="3.11"/>
        <line class="cls-20" x1="1050.27" y1="78.89" x2="1052.74" y2="74.35"/>
        <line class="cls-20" x1="1045.3" y1="76.73" x2="1045.71" y2="71.72"/>
        <line class="cls-20" x1="1041.7" y1="79.2" x2="1038.03" y2="75.14"/>
        <line class="cls-20" x1="1062.3" y1="78.29" x2="1058.63" y2="74.23"/>
        <line class="cls-20" x1="1032.9" y1="79.3" x2="1035.5" y2="76.71"/>
        <line class="cls-20" x1="1029.47" y1="78" x2="1030.65" y2="73.69"/>
        <line class="cls-20" x1="1025.8" y1="78" x2="1025.38" y2="73.69"/>
        <line class="cls-20" x1="1021.8" y1="79.3" x2="1018.2" y2="75.85"/>
        <line class="cls-20" x1="1019.54" y1="82.88" x2="1015.44" y2="81.84"/>
        <line class="cls-20" x1="1020" y1="87.42" x2="1015.54" y2="88.56"/>
        <line class="cls-20" x1="1022.03" y1="91.34" x2="1016.46" y2="94.13"/>
        <line class="cls-20" x1="1022.77" y1="95.9" x2="1019.25" y2="98.56"/>
        <line class="cls-20" x1="1025.59" y1="100.19" x2="1022.03" y2="103.77"/>
        <polygon points="1053.36 142.96 1028.83 142.96 1034.28 121.56 1048.93 121.56 1053.36 142.96"/>
        <circle class="cls-23" cx="1039.15" cy="131.39" r="6.58"/>
        <polygon class="cls-24" points="1034.28 121.56 1034.51 120.69 1048.68 120.69 1053.36 137.17 1053.36 137.17 1048.93 121.56 1034.28 121.56"/>
        <polygon class="cls-25" points="1053.36 137.17 1048.68 120.69 1034.51 120.69 1029.51 139.04 1027.58 139.03 1033.09 118.82 1050.09 118.82 1055.36 137.37 1055.36 139.04 1053.94 139.04 1053.02 135.99 1053.94 139.04 1053.89 139.04 1053.36 137.17 1053.36 137.17"/>
        <path class="cls-16" d="M1029.47,100.72a15.54,15.54,0,0,1,27.76,9.56v6.79h-31.06v-6.79A15.48,15.48,0,0,1,1029.47,100.72Z"/>
        <g>
          <path d="M1036.7,106.3a1.9,1.9,0,1,1-1.9-1.9A1.9,1.9,0,0,1,1036.7,106.3Z"/>
          <path d="M1046.19,106.3a1.9,1.9,0,1,1-1.9-1.9A1.9,1.9,0,0,1,1046.19,106.3Z"/>
        </g>
        <path class="cls-20" d="M1044.79,111.22a15.23,15.23,0,0,1-10.49,0"/>
        <polygon class="cls-26" points="1052.48 140.91 1052.49 140.91 1052.47 140.91 1052.48 140.91"/>
        <polygon class="cls-24" points="1053.23 137.17 1051.34 130.07 1053.36 137.17 1053.23 137.17"/>
        <polygon class="cls-25" points="1048.68 120.69 1051.04 128.93 1051.02 128.93 1048.68 120.69"/>
        <polygon points="1051.04 128.93 1051.04 128.93 1051.04 128.93 1051.04 128.93"/>
        <path class="cls-26" d="M1026.17,137.11v3.8H1031l.5-1.87.5-1.87.5-1.87h0l.48-1.75,3-11h11.33l3.61,12.74h0l.84,2.94.22.8.53,1.87h4.76v-3.8L1051.51,117h-19.85l-5.49,20.16Zm1.87.25,5-18.54h17l5.27,18.55V139h-1.42l-2.9-10.11.3,1.14,2,7.1-4.68-16.48h-14.17L1030,137.17h0l-.49,1.87H1028Z"/>
        <polygon class="cls-25" points="1028.09 137.17 1033.09 118.82 1050.09 118.82 1055.3 137.17 1057.23 137.17 1057.23 139.04 1055.36 139.04 1054.6 139.04 1053.94 139.04 1048.68 120.69 1034.51 120.69 1030.02 137.17 1030.07 137.17 1029.57 139.04 1029.28 139.04 1029.1 139.04 1028.04 139.04 1026.17 139.04 1026.17 137.17 1028.09 137.17"/>
        <path class="cls-27" d="M1000,224.39H975.78a12.14,12.14,0,0,1-12-10.25H1012A12.12,12.12,0,0,1,1000,224.39Z"/>
        <path d="M1057.23,160.45v41.14a41.14,41.14,0,0,1-41.14-41.14Z"/>
        <path class="cls-28" d="M1067.17,78.81a6.91,6.91,0,0,0-6.31-7.26,6.81,6.81,0,0,0-6.7,3.08,12.2,12.2,0,0,0-9.21-4.28c-.31,0-.57,0-.79,0a9.76,9.76,0,0,0-8.35,4.54,8.79,8.79,0,0,0-1.2-1.15l-.18-.16-.4-.26a13.54,13.54,0,0,0-7.39-2.47h-.43a13.72,13.72,0,0,0-4.44.76,13.45,13.45,0,0,0-9.22,12.62,31.53,31.53,0,0,0,4.87,16,25.61,25.61,0,0,0,5.52,6.78"/>
        <path class="cls-29" d="M1024.55,77.65a7.51,7.51,0,0,1,2.65-.41,7.38,7.38,0,0,1,4.09,1.39l0,0c1.48.86,2.43,4.91,5.39,4.91,5.66,0,2.8-6.87,8.6-6.83.48-.07,5.38-.36,6.88,6.28.5,2.19,3.57,4,5.44.41,0,0,3.32-6.14,3.32-6.14s5.74,6.34,5.74,15c0,9.58-7.76,11.85-10.74,11.87-2,0-2.73-4.39-5.46-5.09-1.42-.37-2.13,1.89-4.64,1.78-1.55-.07-2.24-3-4.14-3.05-2.76-.08-3.24,3.34-4.48,3.49-2.42.31-2.42-1.92-4.83-1.77-1.46.1-2.89,3.27-4.23,3.23-.93,0-8.62-8.57-8.62-18.31A7.23,7.23,0,0,1,1024.55,77.65Z"/>
        <path class="cls-30" d="M1056.33,101.57c1.65-.19,7.86-1.43,7.86-9.34a20.68,20.68,0,0,0-3-10.22c-.76,1.39-1.39,2.57-1.39,2.57-1.53,2.93-3.7,3.37-4.86,3.37a5.58,5.58,0,0,1-5.22-4.39c-.89-3.93-3.12-4.36-4-4.36l-.19,0h-.23c-1.21,0-1.35.22-2.06,1.91-.77,1.84-2.06,4.92-6.53,4.92-3.26,0-5-2.65-6-4.23a10.53,10.53,0,0,0-.74-1.07l-.2-.12-.07-.06a4.88,4.88,0,0,0-2.59-.84H1027a4.92,4.92,0,0,0-1.61.28,4.74,4.74,0,0,0-3.33,4.37c0,6.71,4.17,12.83,6.26,15.17a.46.46,0,0,0,.07-.07c.94-1.07,2.11-2.39,3.87-2.51h.39a5.52,5.52,0,0,1,3.74,1.5l.1.08c.78-1.18,2.23-3.3,5.15-3.3h.15a5.63,5.63,0,0,1,4.18,2.57l.37.45a3.17,3.17,0,0,0,.91-.56,4.78,4.78,0,0,1,3-1.23,3.79,3.79,0,0,1,.94.12c2.34.61,3.6,2.56,4.53,4,.2.31.48.74.69,1"/>
        <path class="cls-23" d="M1057.93,97.29c1.67-.85,2.52-2.54,2.52-5.06a14,14,0,0,0-.21-2.36,8.69,8.69,0,0,1-5.27,1.82,9.28,9.28,0,0,1-8.87-7.3c0-.13-.06-.24-.08-.35a9.84,9.84,0,0,1-9.32,5.75c-5.3,0-8-4.17-9.13-6l-.19-.29a1.3,1.3,0,0,0-.39-.09h-.08a2,2,0,0,0-.34.09c-.26.09-.8.41-.8.83a19.48,19.48,0,0,0,3.16,9.73,7.51,7.51,0,0,1,3.06-.87l.63,0a9,9,0,0,1,3,.51,8.81,8.81,0,0,1,6-2.23h.21a8.21,8.21,0,0,1,5.12,2,7.47,7.47,0,0,1,3.23-.74,7.94,7.94,0,0,1,1.88.24A10.64,10.64,0,0,1,1057.93,97.29Z"/>
        <circle class="cls-20" cx="1059.76" cy="112.41" r="3.11"/>
        <path class="cls-31" d="M1028.29,99.55a.46.46,0,0,0,.07-.07c.94-1.07,2.11-2.39,3.87-2.51h.39a5.52,5.52,0,0,1,3.74,1.5l.1.08c.78-1.18,2.23-3.3,5.15-3.3h.15a5.63,5.63,0,0,1,4.18,2.57l.37.45a3.17,3.17,0,0,0,.91-.56,4.78,4.78,0,0,1,3-1.23,3.79,3.79,0,0,1,.94.12c2.34.61,3.6,2.56,4.53,4,.2.31.48.74.69,1"/>
        <path class="cls-26" d="M1026.17,155v5.66h7.32l.5-1.87.5-1.87.5-1.87h0l.48-1.75,3-11h6.33l3.62,12.74h0l.83,2.94.23.8.53,1.87h7.25v-5.61l-3,0L1049,136.73h-14.86l-4.87,18.3Zm4.36,2.11,5-18.54h12l5.26,18.55v1.67h-1.42l-2.89-10.11.3,1.14,2,7.1-4.68-16.48H1037L1032.52,157h0l-.5,1.87h-1.53Z"/>
        <polygon class="cls-25" points="1030.58 156.95 1035.58 138.6 1047.6 138.6 1052.86 157.15 1052.86 158.82 1051.44 158.82 1046.19 140.47 1037.01 140.47 1032.52 156.95 1032.56 156.95 1032.06 158.82 1031.77 158.82 1031.59 158.82 1030.53 158.82 1026.17 158.82 1026.17 156.95 1030.58 156.95"/>
        <rect x="1021.01" y="160.82" width="15.65" height="15.65" transform="translate(2057.67 337.28) rotate(-180)"/>
        <path d="M1057.23,201.59a41.14,41.14,0,0,1-41.14-41.14"/>
        <path d="M1019.83,160.45h-7.48a44.93,44.93,0,0,0,44.88,44.88v-7.48"/>
        <rect class="cls-25" x="1052.35" y="156.95" width="4.88" height="1.87" transform="translate(2109.58 315.78) rotate(-180)"/>
        <path class="cls-32" d="M1017.34,160.45a39.93,39.93,0,0,0,39.89,39.89"/>
        <path class="cls-17" d="M1028.2,170.35a8.8,8.8,0,0,1,8.9,2.87,8.74,8.74,0,0,1,13.42,0,8.71,8.71,0,0,1,6.71-3.14"/>
        <path class="cls-19" d="M1029.55,174.51a7.87,7.87,0,0,1,.84,0,8.73,8.73,0,0,1,6.71,3.13,8.76,8.76,0,0,1,13.42,0,8.73,8.73,0,0,1,6.71-3.13"/>
        <path class="cls-19" d="M1057.23,191.62a31.2,31.2,0,0,1-31.17-31.17"/>
        <line class="cls-21" x1="1008.92" y1="196.56" x2="1008.92" y2="184.85"/>
        <line class="cls-21" x1="1003.05" y1="196.56" x2="1003.05" y2="184.85"/>
        <line class="cls-21" x1="997.18" y1="196.56" x2="997.18" y2="184.85"/>
        <line class="cls-21" x1="991.32" y1="196.56" x2="991.32" y2="184.85"/>
        <line class="cls-21" x1="987.97" y1="185.56" x2="1012.47" y2="185.56"/>
        <path class="cls-16" d="M1047.51,184.67a9.69,9.69,0,0,1-9.69-9.69V160.45h19.38V175A9.69,9.69,0,0,1,1047.51,184.67Z"/>
        <polygon points="1057.22 141.49 1051.34 141.49 1050.31 136.73 1043.48 136.73 1037.85 136.73 1037.85 160.83 1037.82 160.83 1057.22 160.83 1057.22 141.49"/>
        <line class="cls-19" x1="987.88" y1="197.57" x2="1012.38" y2="197.57"/>
        <line class="cls-17" x1="987.88" y1="195.77" x2="1012.38" y2="195.77"/>
        <line class="cls-17" x1="987.88" y1="199.32" x2="1012.38" y2="199.32"/>
        <line class="cls-19" x1="1037.85" y1="146.23" x2="1057.2" y2="146.23"/>
        <line class="cls-17" x1="1037.85" y1="144.43" x2="1057.2" y2="144.43"/>
        <line class="cls-17" x1="1037.85" y1="147.98" x2="1057.2" y2="147.98"/>
        <line class="cls-19" x1="1037.85" y1="151.35" x2="1057.2" y2="151.35"/>
        <line class="cls-33" x1="1037.85" y1="149.55" x2="1057.2" y2="149.55"/>
        <line class="cls-33" x1="1037.85" y1="153.1" x2="1057.2" y2="153.1"/>
        <line class="cls-17" x1="1037.85" y1="154.85" x2="1057.2" y2="154.85"/>
        <g>
          <path class="cls-34" d="M1008.64,74.87a21,21,0,1,1-42.06,0c0-.19,0-.38,0-.57h42C1008.63,74.49,1008.64,74.68,1008.64,74.87Z"/>
          <g>
            <path class="cls-35" d="M1003.23,80.63a31.37,31.37,0,0,1,4.89.35,21.46,21.46,0,0,1-39.64,3.41,25.36,25.36,0,0,0,10.07,1.79C990.89,86.18,990.89,80.63,1003.23,80.63Z"/>
            <path class="cls-33" d="M1009.07,74.66a21.46,21.46,0,0,1-42.92,0c0-.19,0-.38,0-.58h42.89C1009.06,74.28,1009.07,74.47,1009.07,74.66Z"/>
          </g>
        </g>
      </g>
      <g>
        <path class="cls-36" d="M1068.63,206.07c2.51,0,4.45,2.45,5.72,5.49,3.06,7.34,5.31,9.79,8.07,9.91,7.34.32,46.76.32,54.12,0,2.75-.12,5-2.57,8.06-9.91,1.27-3,3.22-5.49,5.73-5.49"/>
        <path class="cls-37" d="M1077.05,178.06c0,9.56,14.69,17.32,32.81,17.32h0c18.12,0,32.11-7.78,32.8-17.32,1.22-16.78-13-24.18-13-24.18.72,3.79-6,8.17-6,8.17-.76-10.88-14.07-22.57-27.54-22.28,0,0,5.38,3.11,3.77,15.55-1.53,8.7-5,12.25-5,12.25,0-8.66-12.5-11.64-12.5-11.64C1086.16,166.51,1077.05,169.4,1077.05,178.06Z"/>
        <path class="cls-6" d="M1130.15,182.16c0,7.2-9,13.35-20.55,13.21-10.91-.13-18.58-1.61-17.71-8.35-.7-7.1,4.83-11,10.41-17.89l4.47,4.74c3.32-6,1.12-15,1.12-15C1110.76,160,1130.15,169.62,1130.15,182.16Z"/>
        <path class="cls-9" d="M1104.38,178.8c-2.31,4.83-3.37,6.42-3.37,9.85,0,3.59,2.72,7.2,9.11,7.2h0c6.43,0,11.58-3.26,11.57-7.26,1.69-10.83-8.92-16.08-8.92-16.08,1.45,5.38-2.86,10.13-2.86,10.13A39.69,39.69,0,0,0,1104.38,178.8Z"/>
        <path class="cls-36" d="M1066.19,204.7a1.52,1.52,0,0,0,1.53,1.53h40.64v-3.06h-40.64A1.53,1.53,0,0,0,1066.19,204.7Z"/>
        <path class="cls-36" d="M1153.3,204.7a1.53,1.53,0,0,0-1.53-1.53h-50.39v3.06h50.39A1.52,1.52,0,0,0,1153.3,204.7Z"/>
        <g>
          <path class="cls-10" d="M1090.06,194.36a4,4,0,1,1,0-8.09H1122v8.09Z"/>
          <path d="M1121.57,186.7v7.23h-31.51a3.62,3.62,0,1,1,0-7.23h31.51m.86-.87h-32.37a4.49,4.49,0,1,0,0,9h32.37v-9Z"/>
        </g>
        <g>
          <path class="cls-10" d="M1122.43,194.36a4,4,0,1,1,4-4.05A4.05,4.05,0,0,1,1122.43,194.36Z"/>
          <path d="M1122.43,186.7a3.62,3.62,0,1,1-3.61,3.61,3.62,3.62,0,0,1,3.61-3.61m0-.87a4.49,4.49,0,1,0,4.48,4.48,4.49,4.49,0,0,0-4.48-4.48Z"/>
        </g>
        <g>
          <path class="cls-10" d="M1131.4,194.36a4,4,0,1,1,4-4.05A4,4,0,0,1,1131.4,194.36Z"/>
          <path d="M1131.4,186.7a3.62,3.62,0,1,1-3.62,3.61,3.61,3.61,0,0,1,3.62-3.61m0-.87a4.49,4.49,0,1,0,4.48,4.48,4.49,4.49,0,0,0-4.48-4.48Z"/>
        </g>
        <g>
          <path class="cls-10" d="M1126.91,202.37a4.05,4.05,0,1,1,4-4.05A4.06,4.06,0,0,1,1126.91,202.37Z"/>
          <path d="M1126.91,194.7a3.62,3.62,0,1,1-3.61,3.62,3.62,3.62,0,0,1,3.61-3.62m0-.87a4.49,4.49,0,1,0,4.49,4.49,4.49,4.49,0,0,0-4.49-4.49Z"/>
        </g>
        <g>
          <circle class="cls-10" cx="1135.88" cy="198.32" r="4.05"/>
          <path d="M1135.88,194.7a3.62,3.62,0,1,1-3.62,3.62,3.62,3.62,0,0,1,3.62-3.62m0-.87a4.49,4.49,0,1,0,4.48,4.49,4.48,4.48,0,0,0-4.48-4.49Z"/>
        </g>
        <path class="cls-38" d="M1136.15,196.49a1.83,1.83,0,1,1,0,3.65"/>
        <path class="cls-38" d="M1126.91,196.49a1.83,1.83,0,1,1,0,3.65"/>
        <path class="cls-38" d="M1122.51,188.49a1.83,1.83,0,1,1,0,3.65"/>
        <path class="cls-38" d="M1131.38,188.49a1.83,1.83,0,1,1,0,3.65"/>
        <g>
          <path class="cls-10" d="M1085.57,202.37a4.05,4.05,0,1,1,0-8.1h32v8.1Z"/>
          <path d="M1117.08,194.7v7.23h-31.51a3.62,3.62,0,0,1,0-7.23h31.51m.87-.87h-32.38a4.49,4.49,0,0,0,0,9H1118v-9Z"/>
        </g>
        <g>
          <circle class="cls-10" cx="1117.95" cy="198.32" r="4.05"/>
          <path d="M1118,194.7a3.62,3.62,0,1,1-3.62,3.62,3.63,3.63,0,0,1,3.62-3.62m0-.87a4.49,4.49,0,1,0,4.48,4.49,4.48,4.48,0,0,0-4.48-4.49Z"/>
        </g>
        <line class="cls-38" x1="1106.1" y1="199.66" x2="1110.98" y2="199.66"/>
        <line class="cls-38" x1="1085.57" y1="199.66" x2="1101.85" y2="199.66"/>
        <line class="cls-38" x1="1109.03" y1="191.72" x2="1114.88" y2="191.72"/>
        <line class="cls-38" x1="1089.48" y1="191.72" x2="1104.78" y2="191.72"/>
        <line class="cls-38" x1="1097.13" y1="196.99" x2="1108.36" y2="196.99"/>
        <path class="cls-38" d="M1118,196.49a1.83,1.83,0,0,1,0,3.65"/>
      </g>
      <text class="cls-39" transform="translate(402.48 21.75)">A <tspan class="cls-40" x="27.82" y="0">S</tspan><tspan class="cls-41" x="43.32" y="0">U</tspan><tspan class="cls-42" x="59.06" y="0">S</tspan><tspan class="cls-43" x="73.98" y="0">T</tspan><tspan class="cls-40" x="86.47" y="0">A</tspan><tspan class="cls-44" x="103" y="0">I</tspan><tspan class="cls-40" x="111.44" y="0">NA</tspan><tspan x="143.97" y="0">B</tspan><tspan class="cls-45" x="159.27" y="0">L</tspan><tspan x="172.32" y="0">E </tspan><tspan class="cls-46" x="196.51" y="0">V</tspan><tspan x="212.88" y="0">I</tspan><tspan class="cls-47" x="221.33" y="0">LL</tspan><tspan class="cls-48" x="246.82" y="0">A</tspan><tspan class="cls-49" x="262.68" y="0">GE </tspan><tspan class="cls-46" x="303.22" y="0">P</tspan><tspan class="cls-50" x="318.31" y="0">R</tspan><tspan class="cls-51" x="333.59" y="0">O</tspan><tspan class="cls-52" x="348.89" y="0">J</tspan><tspan class="cls-45" x="360.54" y="0">E</tspan><tspan class="cls-47" x="373.43" y="0">C</tspan><tspan class="cls-52" x="388.58" y="0">T</tspan></text>
    </g>
  </g>
</svg>
